# wavefront obj file written by the visualization toolkit

mtllib mtl1

v 18.279 -4730.29 244.609
v 27.067 -4734.93 245.688
v 27.3289 -4744.69 247.847
v 18.8027 -4749.81 248.926
v 10.0146 -4745.16 247.847
v 9.75275 -4735.4 245.688
v 16.9804 -4681.88 463.638
v 25.7685 -4686.53 464.717
v 26.0303 -4696.29 466.876
v 17.5041 -4701.4 467.955
v 8.71602 -4696.75 466.876
v 8.45417 -4686.99 464.717
v 13.4676 -4700.16 469.428
v 7.43715 -4692.39 467.612
v 11.2118 -4683.87 463.981
v 21.0169 -4683.12 462.165
v 27.0473 -4690.89 463.981
v 23.2727 -4699.41 467.612
v 50.8409 -4615.81 706.142
v 44.8104 -4608.05 704.327
v 48.5851 -4599.53 700.695
v 58.3902 -4598.78 698.88
v 64.4206 -4606.55 700.695
v 60.646 -4615.06 704.327

vn -0.0261847 0.976071 -0.21587
vn 0.852622 0.51126 -0.107935
vn 0.878806 -0.464811 0.107935
vn 0.0261847 -0.976071 0.21587
vn -0.852622 -0.51126 0.107935
vn -0.878806 0.464811 -0.107935
vn -0.0261847 0.976071 -0.21587
vn 0.852622 0.51126 -0.107935
vn 0.878806 -0.464811 0.107935
vn 0.0261847 -0.976071 0.21587
vn -0.852622 -0.51126 0.107935
vn -0.878806 0.464811 -0.107935
vn -0.377467 -0.851858 0.36312
vn -0.980509 -0.0750859 0.18156
vn -0.603043 0.776773 -0.18156
vn 0.377467 0.851858 -0.36312
vn 0.980509 0.0750859 -0.18156
vn 0.603043 -0.776773 0.18156
vn -0.377467 -0.851858 0.36312
vn -0.980509 -0.0750859 0.18156
vn -0.603043 0.776773 -0.18156
vn 0.377467 0.851858 -0.36312
vn 0.980509 0.0750859 -0.18156
vn 0.603043 -0.776773 0.18156

f 14//14 13//13 20//20
f 20//20 13//13 19//19
f 15//15 14//14 21//21
f 21//21 14//14 20//20
f 16//16 15//15 22//22
f 22//22 15//15 21//21
f 17//17 16//16 23//23
f 23//23 16//16 22//22
f 18//18 17//17 24//24
f 24//24 17//17 23//23
f 13//13 18//18 19//19
f 19//19 18//18 24//24
f 2//2 1//1 8//8
f 8//8 1//1 7//7
f 3//3 2//2 9//9
f 9//9 2//2 8//8
f 4//4 3//3 10//10
f 10//10 3//3 9//9
f 5//5 4//4 11//11
f 11//11 4//4 10//10
f 6//6 5//5 12//12
f 12//12 5//5 11//11
f 1//1 6//6 7//7
f 7//7 6//6 12//12

newmtl mtl1
Ka 0 0 0
Kd 0 0 0
Ks 0 0 0
Ns 1
Tr 1 illum 3